<?xml version="1.0" encoding="UTF-8"?>
<svg id="Layer_1" data-name="Layer 1" xmlns="http://www.w3.org/2000/svg" viewBox="0 0 3000 3000">
  <defs>
    <style>
      .cls-1 {
        fill: #148843;
      }
    </style>
  </defs>
  <path class="cls-1" d="m2060.47,1785.94c-211.87-90.57-431.43-93.45-653.67-48.19-223.88,45.6-412.28,156.81-572.07,327.44-6.12-29.95,3.78-52.52,8.22-74.54,16.2-80.37,37.49-159.28,73.17-233.88,19.58-40.93,41.9-79.99,71.45-113.97,84.34-96.97,180.81-179.26,298.22-234.12,65.02-30.38,133.37-49.34,204.94-58.62,73.07-9.47,145.34-5.63,218.41-.53,69.73,4.87,138.81,13.19,207.11,26.36,77.75,14.99,153.43,37.48,228.67,63.6,180.79,62.77,336.43,169.74,495.82,270.58,25.62,16.21,50.31,34.03,72.58,54.81,28.35,26.45,29.5,38.51,4.79,71.3-92.66,122.93-196.05,236.02-311.53,337.95-85.61,75.57-176.67,143.33-278.51,195.9-89.31,46.1-185.17,68.96-283.85,83.52-93.4,13.78-187.03,14.52-281.1,12.24-52.63-1.27-105.26-4.5-156.71-13.15-84.94-14.29-169.26-32.89-252.27-56.63-38.48-11-76.97-21.99-113.21-39.1-11.25-5.31-15.95-2.35-21.79,7.17-54.62,89.02-113.35,175.66-156.17,271.48-4.8,10.74-10.39,21.17-16.13,31.46-7.55,13.54-18.53,20.32-34.95,20.26-63.25-.23-126.51.12-189.75,1.03-21.66.31-21.76-5.15-11.66-22.79,129.5-226.28,296.73-421.33,491.71-593.06,46.64-41.08,98.02-76.33,150.38-110.62,69.2-45.32,143.38-77.67,220.03-106.25,33.21-12.38,67.64-22.32,101.4-31.15,27.09-7.09,57.22-9.87,86.15-12.94,37.79-4,75.27-12.88,112.8-14.7,91.63-4.45,183.49-12.42,275.28-1.03,3.74.46,7.71-.88,11.57-1.39.22-2.81.44-5.62.66-8.43Z"/>
  <path class="cls-1" d="m584.39,1081.15c-8.62,64.04-17.76,128.66-15.73,193.43,2.57,82.07,15.16,162.98,33.22,242.98,6.41,28.38,82.81,276.74,76.36,279.07-4.91,1.77-10.26-.6-14.93-2.93-140.68-69.93-251.91-159.08-322.53-302.96-65.38-133.21-85.02-283.16-70.35-429.86,10.34-93.36,34.55-185.16,70.44-271.93,23.63-57.13,51.91-112.36,84.47-164.92,67.31-108.68,148.52-208.61,237.96-299.8,1.14-1.16,2.27-2.32,3.41-3.47,4.05-4.11,8.61-8.43,14.35-9.01,8.43-.85,15.17,6.51,20.37,13.19,76.73,98.49,152.48,198.23,216.42,305.65,174.26,292.74,185.82,638.2,7.64,931.57-28.65,47.17-60.45,97.05-98.66,137.11-4.04,4.23-8.45,8.4-13.95,10.38-10.85,3.91-17.99-3.63-23.06-12.18-17.24-29.07-28.37-63.05-39.99-94.68-12.56-34.17-23.88-68.79-34.07-103.74-20.38-69.92-36.23-141.15-48.15-212.99-2.02-12.15-3.92-24.31-5.71-36.49-8.06-54.81-13.78-109.96-17.8-165.21-3.07-42.41-2.67-85.14-7.93-127.37-.75-6.05-1.81-32.44-8-35.04-16.69-6.99-23.2,59.37-25.41,68.68-6.25,26.37-11.5,52.81-16.58,79.41-.71,3.69-1.29,7.4-1.79,11.12Zm41.4-185.67c1.22-1.98-3.17,8.43-3.7,13.07-4.09,35.75-14.97,17.15,3.7-13.07Z"/>
</svg>